HIERARCHY
ROOT hip
{
	OFFSET 0.000000 0.000000 0.000000 
	CHANNELS 6 Xposition Yposition Zposition Xrotation Zrotation Yrotation
	JOINT abdomen
	{
		OFFSET 0.000000 3.402643 0.000000 
		CHANNELS 3 Xrotation Zrotation Yrotation
		JOINT chest
		{
			OFFSET 0.000000 8.438565 -0.680529 
			CHANNELS 3 Xrotation Zrotation Yrotation
			JOINT neck
			{
				OFFSET 0.000000 10.207942 -0.272212 
				CHANNELS 3 Xrotation Zrotation Yrotation
				JOINT head
				{
					OFFSET 0.000000 3.130431 0.000000 
					CHANNELS 3 Xrotation Zrotation Yrotation
					End Site
					{
						OFFSET 0.000000 3.130435 0.000000 
					}
				}
			}
			JOINT lCollar
			{
				OFFSET 3.470700 6.669187 -0.816635 
				CHANNELS 3 Yrotation Zrotation Xrotation
				JOINT lShldr
				{
					OFFSET 3.198488 0.000000 0.000000 
					CHANNELS 3 Zrotation Yrotation Xrotation
					JOINT lForeArm
					{
						OFFSET 10.139888 0.000000 0.000000 
						CHANNELS 3 Yrotation Zrotation Xrotation
						JOINT lHand
						{
							OFFSET 8.370511 0.000000 0.000000 
							CHANNELS 3 Zrotation Yrotation Xrotation
							End Site
							{
								OFFSET 4.083176 0.000000 0.000000 
							}
						}
					}
				}
			}
			JOINT rCollar
			{
				OFFSET -3.470700 6.669187 -0.816635 
				CHANNELS 3 Yrotation Zrotation Xrotation
				JOINT rShldr
				{
					OFFSET -3.198488 0.000000 0.000000 
					CHANNELS 3 Zrotation Yrotation Xrotation
					JOINT rForeArm
					{
						OFFSET -10.139888 0.000000 0.000000 
						CHANNELS 3 Yrotation Zrotation Xrotation
						JOINT rHand
						{
							OFFSET -8.370511 0.000000 0.000000 
							CHANNELS 3 Zrotation Yrotation Xrotation
							End Site
							{
								OFFSET -4.083176 0.000000 0.000000 
							}
						}
					}
				}
			}
		}
	}
	JOINT lThigh
	{
		OFFSET 5.308129 -1.633274 1.361059 
		CHANNELS 3 Xrotation Zrotation Yrotation
		JOINT lShin
		{
			OFFSET -2.041588 -20.007561 0.000000 
			CHANNELS 3 Xrotation Zrotation Yrotation
			JOINT lFoot
			{
				OFFSET 0.000000 -19.190928 -1.224953 
				CHANNELS 3 Xrotation Yrotation Zrotation
				End Site
				{
					OFFSET 0.000000 -2.449906 4.627600 
				}
			}
		}
	}
	JOINT rThigh
	{
		OFFSET -5.308129 -1.633274 1.361059 
		CHANNELS 3 Xrotation Zrotation Yrotation
		JOINT rShin
		{
			OFFSET 2.041588 -20.007561 0.000000 
			CHANNELS 3 Xrotation Zrotation Yrotation
			JOINT rFoot
			{
				OFFSET 0.000000 -19.190928 -1.224953 
				CHANNELS 3 Xrotation Yrotation Zrotation
				End Site
				{
					OFFSET 0.000000 -2.449906 4.627600 
				}
			}
		}
	}
}
MOTION
Frames: 17
Frame Time: 0.033333
-37.227615 50.989700 20.828669 -4.517922 1.759469 20.224987 0.000000 0.000000 0.000000 1.265932 4.898808 8.361144 8.285131 2.779216 39.381756 3.012460 -8.132663 31.860613 5.203032 5.189816 1.112895 -67.144943 15.178465 24.992159 -40.060188 -13.601768 13.351579 3.932013 14.450826 -3.277151 12.160838 9.405689 0.463178 52.325897 -16.724566 22.261618 51.933712 9.474167 9.058278 -9.947580 -12.632950 -2.835615 -7.780378 9.947328 2.874086 9.515064 -0.128756 -15.276813 2.848894 -0.081391 -1.818569 1.466005 0.263841 -6.490976 12.349940 4.661353 -34.800114 -10.558740 0.439818 -4.752857 
-37.253544 51.005497 20.694530 -4.746799 1.840316 20.362553 0.000000 0.000000 0.000000 1.656548 4.903010 8.018121 8.684231 2.742982 38.754189 2.521319 -8.561650 31.740614 4.706813 4.881748 1.513761 -66.633163 12.405339 25.312716 -40.548386 -13.540965 14.031990 4.984464 14.699595 -3.164693 12.053422 9.576539 0.811970 52.442162 -16.818171 22.659153 51.753296 9.620480 9.190262 -9.212692 -12.558794 -2.895488 -7.603151 9.837652 2.877060 9.204929 -0.129561 -14.895061 3.251895 -0.087401 -2.055633 1.704051 0.176048 -6.608999 12.135993 4.828652 -34.605545 -10.403329 0.464144 -5.031137 
-37.280483 51.008713 20.534096 -4.836703 1.865051 20.587658 0.000000 0.000000 0.000000 1.953940 4.957006 7.538896 8.894258 2.691785 38.076958 2.277902 -8.591398 31.505461 4.205125 4.481857 1.826205 -65.874870 9.388123 25.921288 -40.985252 -13.517920 15.967896 6.120822 14.730138 -3.051724 11.800797 9.660993 1.094019 52.530437 -16.899744 23.051229 51.488258 9.820221 9.200930 -8.449130 -12.573672 -2.964966 -7.613246 9.760030 2.837841 8.862231 -0.149225 -14.630062 3.541378 -0.102345 -2.172155 1.602548 0.070531 -6.801279 12.216198 4.994960 -34.514076 -10.329904 0.456978 -5.206710 
-37.310074 50.998161 20.377525 -4.789414 1.872387 20.734377 0.000000 0.000000 0.000000 2.126806 4.914361 7.008494 8.841615 2.678282 37.382069 2.621581 -8.288099 31.131470 3.816362 4.258932 2.031852 -64.966469 6.426245 26.581617 -41.805588 -13.483413 16.712870 6.582275 14.145226 -3.032089 11.326864 9.693040 1.300483 52.598698 -16.976078 23.643162 51.270493 10.024847 9.719342 -8.539359 -12.833733 -2.932707 -7.807562 9.768778 2.932910 8.725807 -0.313648 -14.682661 3.701113 -0.110427 -2.297468 1.281192 -0.064756 -6.882928 12.446767 5.098558 -34.649174 -10.288196 0.458604 -5.237786 
-37.311844 50.993706 20.246231 -4.714186 2.018386 20.746138 0.000000 0.000000 0.000000 2.256468 4.812783 6.498385 8.819329 2.692607 36.531635 2.911666 -8.304168 30.746130 3.166665 4.050670 2.208339 -64.118187 3.517274 27.198425 -42.592037 -13.499773 16.102402 6.414148 13.553314 -3.063862 10.858456 9.687061 1.477502 52.594891 -17.074091 24.110802 50.915440 10.203332 10.438048 -8.545643 -12.864549 -2.935168 -7.729750 9.671309 3.013065 8.290998 -0.531051 -14.784098 4.083323 -0.121712 -2.535041 0.973639 -0.337993 -7.051764 12.769483 5.164501 -34.536621 -10.287893 0.434663 -5.206086 
-37.347385 50.973812 20.105312 -4.507933 1.731761 20.244207 0.000000 0.000000 0.000000 2.185912 4.932021 6.204840 8.791431 2.781225 35.800972 2.580456 -8.412417 30.369265 2.745707 4.120942 2.179995 -63.565422 0.690077 27.753962 -43.031746 -13.582894 16.381695 6.870120 13.712886 -3.014405 10.658875 9.903502 1.410616 52.319210 -17.415251 24.304333 50.935413 10.329906 10.056419 -8.482863 -12.654119 -2.955366 -7.887979 10.074200 3.392385 7.984308 -0.744296 -14.665012 4.385470 -0.146534 -2.725849 0.351633 -0.173705 -6.815716 12.994028 5.100444 -34.309586 -10.241607 0.489757 -5.373388 
-37.364441 50.982079 19.956121 -4.247727 1.536344 19.607199 0.000000 0.000000 0.000000 2.090740 4.944669 5.882104 8.748985 2.777292 34.988544 2.106623 -8.216702 29.858168 2.376517 4.153624 2.131979 -63.057426 -1.974978 28.171057 -43.317081 -13.744370 16.282122 7.555874 13.635303 -2.964889 10.451463 10.061618 1.343666 52.132729 -17.682850 24.205206 50.820347 10.349306 9.435928 -8.335854 -12.261024 -2.991469 -7.840020 10.251156 3.677643 7.290255 -0.949192 -14.205468 4.630590 -0.143654 -2.825272 -0.175068 -0.126116 -6.621966 13.005883 5.075216 -33.862728 -10.033656 0.501340 -5.634892 
-37.337414 51.013062 19.824471 -4.130576 1.615718 19.021793 0.000000 0.000000 0.000000 2.107721 4.861401 5.380881 8.712843 2.752688 34.029385 1.891289 -8.034266 29.358379 1.768474 4.046034 2.220459 -62.666447 -4.455753 28.488766 -43.269722 -13.975118 16.009947 8.014891 13.491490 -2.930845 10.019917 9.977635 1.422886 52.140007 -17.689600 24.083536 50.442551 10.332535 9.580500 -8.503708 -12.115140 -2.981461 -7.533776 10.158117 3.840443 6.537598 -1.084645 -13.669985 5.009562 -0.162019 -2.950657 -0.503634 -0.327817 -6.636823 13.063313 5.063307 -33.331730 -9.862457 0.506846 -6.007495 
-37.288025 51.047356 19.696121 -4.130278 1.753305 18.212231 0.000000 0.000000 0.000000 2.244304 4.796304 4.988364 8.803442 2.849982 33.288963 1.558227 -8.213873 29.144983 1.172615 3.978202 2.397080 -62.294746 -6.621108 28.443750 -43.202759 -14.101077 15.668100 7.293802 13.626210 -2.987968 9.591370 9.966232 1.590871 52.021908 -17.720715 23.773701 50.277920 10.242388 9.651505 -8.616703 -12.172239 -2.967751 -7.177526 10.009398 3.936396 6.001830 -1.142891 -12.906094 5.276773 -0.155885 -3.027805 -0.593589 -0.592958 -6.649129 12.937765 5.000830 -32.568569 -9.581991 0.521527 -6.265555 
-37.284607 51.066486 19.497665 -3.731112 1.591064 17.682842 0.000000 0.000000 0.000000 2.077112 4.800392 4.390679 8.723156 3.090666 32.475292 1.143135 -8.408632 29.070978 0.454288 4.211347 2.330031 -62.212292 -8.391171 28.014421 -43.087093 -14.061852 15.620438 5.592932 13.300852 -3.154995 9.107342 10.101546 1.486952 51.717491 -17.726288 23.363333 50.173992 10.150025 9.304120 -8.466184 -11.955719 -2.995893 -7.675423 10.018995 3.897888 5.954831 -1.162198 -12.406872 5.319223 -0.165239 -2.958562 -1.092074 -0.574983 -6.375430 12.488488 4.874133 -32.336460 -9.085314 0.502963 -6.427474 
-37.217064 51.085907 19.347204 -3.678043 1.719656 16.863476 0.000000 0.000000 0.000000 2.187558 4.696666 3.812441 8.687483 3.333205 31.700693 1.214585 -8.579650 28.976610 -0.058139 4.474364 2.497119 -62.396877 -10.130812 28.262823 -42.594112 -14.186627 17.039198 5.671532 13.981992 -3.116482 8.837952 10.212454 1.614845 51.309002 -17.723017 23.073477 50.311359 10.016994 9.462123 -8.705167 -11.747592 -2.991748 -7.460266 9.842552 3.872304 5.565080 -1.202184 -11.687429 5.660260 -0.178585 -3.061610 -1.197564 -0.894818 -6.488180 12.322195 4.899585 -31.517899 -8.805764 0.500516 -6.520581 
-37.098236 51.116680 19.248461 -3.855437 2.076617 15.811717 0.000000 0.000000 0.000000 2.449873 4.630117 3.488064 8.686156 3.284523 30.945385 1.538172 -8.322903 28.411186 -0.474344 3.946570 2.769827 -61.959980 -11.629592 28.937103 -42.468410 -14.516678 17.629923 6.556327 15.280895 -2.984204 8.426344 9.846403 1.919833 51.184658 -17.492607 22.913624 50.155365 9.954538 9.925468 -8.852275 -11.610463 -2.986390 -6.718022 9.568966 4.049914 4.959595 -1.338630 -10.822948 6.106608 -0.201708 -3.207166 -1.004705 -1.443226 -6.753484 12.255263 4.979996 -30.364019 -8.608067 0.484332 -6.653473 
-37.032497 51.134705 19.124548 -3.851740 2.217392 14.943249 0.000000 0.000000 0.000000 2.526865 4.553623 3.164488 8.727569 3.627794 29.821833 1.653911 -8.860416 27.859863 -1.015278 3.654771 2.885832 -61.648323 -12.768881 29.232908 -42.635796 -14.795777 17.106152 6.703934 14.751497 -2.989615 8.045138 9.841121 2.039235 50.750755 -17.184240 22.791000 49.863224 10.036617 9.812176 -8.769434 -11.398922 -3.009621 -6.376524 9.559454 4.339749 4.528597 -1.592396 -10.377529 6.207244 -0.201507 -3.195648 -1.061703 -1.674361 -6.710953 12.039375 4.880919 -29.825687 -8.438260 0.468606 -6.625442 
-36.953312 51.156006 18.984457 -3.825648 2.329209 14.182179 0.000000 0.000000 0.000000 2.616441 4.457763 2.752532 8.778913 4.012858 28.190523 1.811061 -9.558009 27.015263 -1.556648 3.751626 3.013175 -62.090885 -13.483420 29.218443 -42.820759 -14.709496 17.332113 6.351231 14.118709 -3.052937 7.881863 10.150928 2.129010 50.096798 -17.122324 22.557880 49.845108 10.022523 9.435937 -8.724487 -11.190876 -3.032137 -5.885070 9.485507 4.649921 3.697095 -1.854747 -9.958140 6.383342 -0.212988 -3.217608 -1.218120 -1.918844 -6.752594 11.968752 4.857748 -29.189295 -8.442833 0.477332 -6.685992 
-36.868980 51.158054 18.803589 -3.595788 2.294942 13.819981 0.000000 0.000000 0.000000 2.551004 4.508214 2.263461 8.459934 3.899443 25.973269 2.031291 -8.701429 24.933661 -2.102408 3.567475 2.982463 -62.555565 -13.780118 28.980509 -43.290932 -14.368962 17.843334 5.771568 14.323049 -3.098756 7.438681 10.196461 2.083582 49.801456 -17.032473 22.315117 49.675678 10.011456 9.451640 -8.557868 -11.089104 -3.040632 -6.110785 9.448524 4.715351 3.483524 -2.021589 -9.567771 6.615092 -0.225637 -3.310703 -1.786119 -2.117594 -6.762443 12.260249 4.894880 -28.809786 -8.450006 0.492320 -6.818780 
-36.780552 51.168396 18.680313 -3.441510 2.421328 13.518327 0.000000 0.000000 0.000000 2.518903 4.353346 1.792330 8.075587 3.744846 23.167614 2.100101 -7.944649 22.402977 -2.514285 3.554647 3.010854 -63.123619 -14.113534 29.061365 -43.810783 -14.203434 17.853374 5.803361 14.158493 -3.101635 7.171408 10.237027 2.094337 49.575096 -16.883890 21.999094 49.492889 10.031208 9.917328 -8.465407 -11.023273 -3.049801 -5.973246 9.222404 4.723892 2.897797 -2.158027 -9.116982 6.877424 -0.228135 -3.430682 -2.195084 -2.487051 -6.868796 12.563509 4.925049 -28.410648 -8.611071 0.512057 -6.758904 
-36.700535 51.185894 18.562912 -3.315643 2.451707 13.332959 0.000000 0.000000 0.000000 2.558740 4.305532 1.303227 7.654953 3.670797 20.023386 2.475986 -7.711158 19.686628 -2.744269 3.579079 3.069354 -63.638916 -14.386748 29.480442 -44.181404 -14.186494 17.352491 6.231258 13.766922 -3.077082 6.704017 10.083233 2.174484 49.671593 -16.680643 21.830276 49.326973 10.005559 9.970077 -8.391038 -10.840996 -3.062234 -5.624885 9.081727 4.775312 1.871180 -2.244549 -8.806086 7.089863 -0.253363 -3.466310 -2.418767 -2.681123 -6.966382 12.593149 4.974756 -28.120182 -8.754828 0.498066 -6.789526 
